<?xml version="1.0" encoding="utf-8"?>
<!-- Generator: Adobe Illustrator 17.0.0, SVG Export Plug-In . SVG Version: 6.00 Build 0)  -->
<!DOCTYPE svg PUBLIC "-//W3C//DTD SVG 1.1//EN" "http://www.w3.org/Graphics/SVG/1.1/DTD/svg11.dtd">
<svg version="1.1" xmlns="http://www.w3.org/2000/svg" xmlns:xlink="http://www.w3.org/1999/xlink" x="0px" y="0px"
	 width="1067.959px" height="269.291px" viewBox="0 0 1067.959 269.291" enable-background="new 0 0 1067.959 269.291"
	 xml:space="preserve">
<g id="Layer_2">
</g>
<g id="Layer_1">
	<rect x="49.798" y="50.651" fill="#224F9F" width="253.254" height="168.124"/>
	<g>
		<g>
			<polygon fill="#FAED36" stroke="#FAED36" stroke-width="1.1223" points="239.925,132.004 237.289,131.956 233.376,131.889 
				232.099,128.453 231.278,126.252 230.457,128.453 229.189,131.889 225.28,131.956 222.635,132.004 224.794,133.543 
				227.867,135.72 226.751,139.154 225.989,141.49 228.059,140.146 231.278,138.055 234.503,140.146 236.568,141.49 
				235.811,139.154 234.698,135.72 237.775,133.543 			"/>
			<polygon fill="#FAED36" stroke="#FAED36" stroke-width="1.1223" points="220.532,108.608 219.428,112.049 218.665,114.39 
				220.735,113.046 223.952,110.937 227.184,113.046 229.245,114.39 228.491,112.049 227.375,108.608 230.442,106.431 
				232.61,104.904 229.965,104.85 226.046,104.79 224.775,101.348 223.952,99.141 223.131,101.348 221.873,104.79 217.959,104.85 
				215.311,104.904 217.464,106.431 			"/>
			<polygon fill="#FAED36" stroke="#FAED36" stroke-width="1.1223" points="206.149,85.077 204.869,81.635 204.045,79.435 
				203.23,81.635 201.959,85.077 198.052,85.144 195.402,85.199 197.56,86.731 200.637,88.908 199.527,92.349 198.761,94.683 
				200.835,93.346 204.045,91.243 207.268,93.346 209.338,94.683 208.572,92.349 207.477,88.908 210.541,86.731 212.697,85.199 
				210.061,85.144 			"/>
			<polygon fill="#FAED36" stroke="#FAED36" stroke-width="1.1223" points="178.311,77.805 177.033,74.382 176.212,72.181 
				175.401,74.382 174.124,77.805 170.211,77.891 167.566,77.933 169.725,79.465 172.795,81.647 171.683,85.089 170.92,87.423 
				172.99,86.087 176.212,83.982 179.438,86.087 181.496,87.423 180.742,85.089 179.636,81.647 182.706,79.465 184.855,77.933 
				182.214,77.891 			"/>
			<polygon fill="#FAED36" stroke="#FAED36" stroke-width="1.1223" points="150.721,85.077 149.441,81.635 148.63,79.435 
				147.815,81.635 146.535,85.077 142.631,85.138 139.977,85.193 142.133,86.719 145.213,88.896 144.1,92.337 143.343,94.683 
				145.407,93.328 148.63,91.23 151.843,93.328 153.91,94.683 153.156,92.337 152.047,88.896 155.117,86.719 157.279,85.193 
				154.631,85.138 			"/>
			<polygon fill="#FAED36" stroke="#FAED36" stroke-width="1.1223" points="130.635,104.582 129.368,101.16 128.549,98.952 
				127.729,101.16 126.458,104.582 122.552,104.655 119.903,104.704 122.059,106.236 125.132,108.425 124.014,111.855 
				123.269,114.189 125.318,112.852 128.544,110.748 131.775,112.852 133.833,114.195 133.073,111.855 131.967,108.425 
				135.046,106.236 137.192,104.704 134.551,104.655 			"/>
			<polygon fill="#FAED36" stroke="#FAED36" stroke-width="1.1223" points="124.263,140.091 126.331,141.44 125.57,139.1 
				124.467,135.67 127.531,133.482 129.689,131.956 127.041,131.901 123.135,131.84 121.855,128.405 121.043,126.204 
				120.226,128.405 118.952,131.84 115.039,131.901 112.389,131.956 114.547,133.482 117.624,135.67 116.517,139.1 115.754,141.44 
				117.815,140.091 121.043,137.987 			"/>
			<polygon fill="#FAED36" stroke="#FAED36" stroke-width="1.1223" points="130.538,158.727 129.258,155.311 128.452,153.103 
				127.628,155.311 126.346,158.727 122.439,158.807 119.803,158.866 121.953,160.382 125.02,162.576 123.914,166.005 
				123.147,168.334 125.218,167.003 128.437,164.898 131.663,167.003 133.715,168.346 132.97,166.005 131.863,162.576 
				134.931,160.382 137.083,158.866 134.438,158.807 			"/>
			<polygon fill="#FAED36" stroke="#FAED36" stroke-width="1.1223" points="150.472,178.415 149.207,174.973 148.392,172.772 
				147.562,174.973 146.292,178.415 142.382,178.476 139.74,178.53 141.902,180.062 144.963,182.245 143.856,185.675 
				143.097,188.022 145.155,186.678 148.392,184.574 151.6,186.678 153.673,188.022 152.91,185.675 151.807,182.245 
				154.871,180.062 157.029,178.53 154.384,178.476 			"/>
			<polygon fill="#FAED36" stroke="#FAED36" stroke-width="1.1223" points="178.286,185.686 177.021,182.264 176.197,180.057 
				175.386,182.264 174.106,185.686 170.199,185.759 167.548,185.814 169.704,187.346 172.783,189.523 171.667,192.952 
				170.917,195.3 172.978,193.955 176.197,191.852 179.423,193.955 181.481,195.3 180.73,192.952 179.618,189.523 182.682,187.346 
				184.843,185.814 182.207,185.759 			"/>
			<polygon fill="#FAED36" stroke="#FAED36" stroke-width="1.1223" points="205.89,178.542 204.616,175.12 203.796,172.919 
				202.981,175.12 201.71,178.542 197.804,178.628 195.159,178.683 197.317,180.202 200.388,182.392 199.278,185.821 
				198.521,188.167 200.579,186.823 203.796,184.72 207.027,186.823 209.073,188.167 208.334,185.821 207.228,182.392 
				210.295,180.202 212.448,178.683 209.8,178.628 			"/>
			<polygon fill="#FAED36" stroke="#FAED36" stroke-width="1.1223" points="225.943,158.971 224.665,155.534 223.857,153.334 
				223.042,155.534 221.757,158.971 217.853,159.036 215.211,159.093 217.37,160.624 220.432,162.8 219.324,166.242 
				218.583,168.578 220.628,167.24 223.857,165.13 227.077,167.24 229.135,168.578 228.378,166.242 227.271,162.8 230.342,160.624 
				232.5,159.093 229.855,159.036 			"/>
		</g>
	</g>
	<g>
		<path fill="#224F9F" d="M371.996,76.727l5.051,1.284c-1.059,4.173-2.964,7.356-5.715,9.547c-2.751,2.191-6.115,3.287-10.09,3.287
			c-4.114,0-7.46-0.842-10.038-2.527c-2.578-1.685-4.54-4.126-5.884-7.321c-1.346-3.196-2.018-6.627-2.018-10.294
			c0-3.998,0.759-7.486,2.278-10.463c1.519-2.977,3.68-5.239,6.483-6.784c2.803-1.545,5.889-2.318,9.256-2.318
			c3.819,0,7.03,0.978,9.634,2.934c2.604,1.956,4.418,4.706,5.442,8.25l-4.973,1.179c-0.885-2.793-2.17-4.828-3.854-6.103
			c-1.684-1.274-3.801-1.912-6.353-1.912c-2.934,0-5.386,0.707-7.355,2.122c-1.971,1.414-3.355,3.313-4.153,5.697
			c-0.798,2.383-1.198,4.841-1.198,7.373c0,3.265,0.473,6.116,1.419,8.552c0.946,2.436,2.418,4.256,4.414,5.461
			c1.996,1.205,4.157,1.808,6.483,1.808c2.829,0,5.225-0.821,7.186-2.462C369.974,82.394,371.301,79.958,371.996,76.727z"/>
		<path fill="#224F9F" d="M380.927,76.282c0-5.151,1.423-8.966,4.27-11.446c2.378-2.061,5.277-3.091,8.697-3.091
			c3.802,0,6.909,1.253,9.322,3.759c2.413,2.506,3.619,5.968,3.619,10.385c0,3.58-0.534,6.395-1.602,8.447
			c-1.067,2.052-2.621,3.645-4.661,4.78c-2.04,1.135-4.266,1.702-6.679,1.702c-3.871,0-7-1.248-9.387-3.745
			C382.12,84.576,380.927,80.98,380.927,76.282z M385.744,76.282c0,3.562,0.772,6.23,2.317,8.002
			c1.545,1.772,3.489,2.658,5.833,2.658c2.326,0,4.261-0.89,5.807-2.671c1.544-1.781,2.317-4.496,2.317-8.146
			c0-3.44-0.777-6.046-2.331-7.818c-1.554-1.772-3.485-2.658-5.793-2.658c-2.343,0-4.288,0.882-5.833,2.645
			C386.516,70.057,385.744,72.72,385.744,76.282z"/>
		<path fill="#224F9F" d="M410.506,78.666v-4.741h14.399v4.741H410.506z"/>
		<path fill="#224F9F" d="M431.206,90.19V66.041h-4.14v-3.667h4.14v-2.96c0-1.868,0.164-3.256,0.495-4.164
			c0.451-1.222,1.246-2.213,2.382-2.973c1.137-0.759,2.729-1.139,4.778-1.139c1.319,0,2.777,0.157,4.374,0.472l-0.703,4.112
			c-0.972-0.174-1.892-0.262-2.76-0.262c-1.423,0-2.431,0.306-3.02,0.917c-0.59,0.612-0.885,1.755-0.885,3.431v2.567h5.39v3.667
			h-5.39V90.19H431.206z"/>
		<path fill="#224F9F" d="M463.024,90.19v-4.086c-2.152,3.143-5.077,4.714-8.774,4.714c-1.632,0-3.155-0.314-4.57-0.943
			c-1.415-0.628-2.465-1.419-3.15-2.37c-0.686-0.952-1.168-2.117-1.445-3.497c-0.191-0.926-0.286-2.392-0.286-4.4V62.374h4.686
			v15.427c0,2.462,0.095,4.121,0.287,4.977c0.295,1.24,0.92,2.213,1.874,2.92c0.955,0.708,2.135,1.061,3.541,1.061
			c1.406,0,2.725-0.362,3.958-1.087c1.233-0.725,2.104-1.712,2.617-2.96c0.512-1.248,0.768-3.06,0.768-5.435V62.374h4.687V90.19
			H463.024z"/>
		<path fill="#224F9F" d="M474.559,90.19V62.374h4.219v3.955c2.031-3.055,4.963-4.583,8.801-4.583c1.666,0,3.197,0.301,4.596,0.904
			c1.396,0.602,2.441,1.393,3.137,2.37c0.693,0.978,1.18,2.139,1.459,3.484c0.172,0.873,0.26,2.401,0.26,4.583V90.19h-4.688V73.27
			c0-1.92-0.182-3.356-0.547-4.309c-0.363-0.951-1.012-1.711-1.939-2.279c-0.928-0.567-2.018-0.851-3.268-0.851
			c-1.996,0-3.719,0.638-5.168,1.912c-1.449,1.275-2.174,3.693-2.174,7.255V90.19H474.559z"/>
		<path fill="#224F9F" d="M522.155,90.19v-3.51c-1.754,2.759-4.331,4.138-7.733,4.138c-2.204,0-4.23-0.611-6.08-1.834
			c-1.849-1.222-3.28-2.929-4.296-5.121c-1.016-2.191-1.523-4.71-1.523-7.556c0-2.776,0.46-5.295,1.381-7.557
			c0.919-2.261,2.3-3.994,4.14-5.199c1.84-1.205,3.896-1.807,6.171-1.807c1.666,0,3.15,0.354,4.452,1.061
			c1.302,0.708,2.36,1.628,3.177,2.764V51.792h4.661V90.19H522.155z M507.34,76.308c0,3.562,0.746,6.225,2.239,7.989
			c1.492,1.764,3.255,2.645,5.285,2.645c2.049,0,3.789-0.842,5.221-2.527c1.433-1.685,2.148-4.256,2.148-7.714
			c0-3.806-0.729-6.6-2.188-8.381c-1.458-1.781-3.254-2.671-5.39-2.671c-2.083,0-3.823,0.855-5.221,2.566
			C508.038,69.926,507.34,72.624,507.34,76.308z"/>
		<path fill="#224F9F" d="M552.802,81.232l4.843,0.603c-0.764,2.847-2.178,5.055-4.244,6.627c-2.065,1.571-4.704,2.357-7.915,2.357
			c-4.045,0-7.252-1.252-9.621-3.758c-2.369-2.505-3.554-6.02-3.554-10.542c0-4.679,1.197-8.312,3.593-10.896
			c2.396-2.584,5.503-3.876,9.321-3.876c3.697,0,6.718,1.266,9.061,3.798c2.344,2.532,3.515,6.094,3.515,10.687
			c0,0.279-0.009,0.699-0.025,1.257h-20.622c0.173,3.056,1.032,5.396,2.578,7.02c1.544,1.624,3.471,2.436,5.78,2.436
			c1.718,0,3.185-0.454,4.4-1.362C551.127,84.672,552.09,83.223,552.802,81.232z M537.414,73.61h15.44
			c-0.209-2.34-0.799-4.095-1.771-5.265c-1.492-1.816-3.428-2.724-5.806-2.724c-2.153,0-3.963,0.725-5.429,2.174
			C538.381,69.245,537.57,71.183,537.414,73.61z"/>
		<path fill="#224F9F" d="M581.47,90.19v-3.51c-1.754,2.759-4.331,4.138-7.733,4.138c-2.204,0-4.23-0.611-6.08-1.834
			c-1.849-1.222-3.28-2.929-4.296-5.121c-1.016-2.191-1.523-4.71-1.523-7.556c0-2.776,0.46-5.295,1.381-7.557
			c0.919-2.261,2.3-3.994,4.14-5.199c1.84-1.205,3.897-1.807,6.171-1.807c1.666,0,3.15,0.354,4.452,1.061
			c1.302,0.708,2.36,1.628,3.177,2.764V51.792h4.661V90.19H581.47z M566.654,76.308c0,3.562,0.746,6.225,2.239,7.989
			c1.492,1.764,3.255,2.645,5.285,2.645c2.049,0,3.789-0.842,5.221-2.527c1.433-1.685,2.148-4.256,2.148-7.714
			c0-3.806-0.73-6.6-2.188-8.381c-1.458-1.781-3.254-2.671-5.39-2.671c-2.083,0-3.823,0.855-5.221,2.566
			C567.352,69.926,566.654,72.624,566.654,76.308z"/>
		<path fill="#224F9F" d="M612.324,90.19h-4.348V51.792h4.687v13.699c1.979-2.497,4.505-3.746,7.577-3.746
			c1.701,0,3.311,0.345,4.83,1.035c1.519,0.69,2.769,1.659,3.749,2.907c0.981,1.249,1.749,2.755,2.305,4.518
			c0.556,1.764,0.833,3.65,0.833,5.658c0,4.767-1.172,8.452-3.515,11.053c-2.344,2.602-5.156,3.902-8.437,3.902
			c-3.264,0-5.824-1.371-7.682-4.112V90.19z M612.272,76.072c0,3.336,0.451,5.745,1.355,7.229c1.475,2.427,3.471,3.641,5.988,3.641
			c2.048,0,3.818-0.895,5.312-2.685c1.493-1.789,2.239-4.456,2.239-8.001c0-3.632-0.716-6.312-2.147-8.042
			c-1.433-1.729-3.164-2.593-5.195-2.593c-2.048,0-3.818,0.895-5.312,2.685C613.019,70.096,612.272,72.685,612.272,76.072z"/>
		<path fill="#224F9F" d="M637.451,100.903l-0.521-4.427c1.023,0.279,1.918,0.419,2.682,0.419c1.042,0,1.875-0.175,2.5-0.524
			c0.625-0.349,1.137-0.838,1.536-1.466c0.295-0.472,0.773-1.642,1.432-3.51c0.087-0.262,0.226-0.646,0.417-1.153l-10.493-27.869
			h5.051l5.755,16.108c0.746,2.043,1.414,4.191,2.005,6.443c0.538-2.165,1.18-4.278,1.927-6.338l5.91-16.213h4.688l-10.52,28.288
			c-1.129,3.055-2.005,5.16-2.63,6.312c-0.833,1.554-1.788,2.693-2.864,3.418s-2.36,1.087-3.854,1.087
			C639.569,101.479,638.561,101.287,637.451,100.903z"/>
		<path fill="#224F9F" d="M689.37,85.973l0.677,4.165c-1.319,0.279-2.499,0.419-3.541,0.419c-1.701,0-3.02-0.271-3.958-0.812
			s-1.597-1.252-1.979-2.135c-0.382-0.881-0.573-2.737-0.573-5.566V66.041h-3.437v-3.667h3.437v-6.888l4.661-2.829v9.717h4.713
			v3.667h-4.713v16.266c0,1.345,0.082,2.209,0.247,2.593c0.165,0.384,0.434,0.69,0.808,0.917c0.373,0.227,0.906,0.34,1.602,0.34
			C687.834,86.156,688.519,86.095,689.37,85.973z"/>
		<path fill="#224F9F" d="M693.952,90.19V51.792h4.688v13.777c2.187-2.549,4.947-3.824,8.279-3.824c2.049,0,3.828,0.406,5.338,1.218
			c1.511,0.812,2.591,1.934,3.242,3.366c0.65,1.432,0.977,3.51,0.977,6.234V90.19h-4.688V72.563c0-2.357-0.508-4.073-1.523-5.147
			c-1.016-1.074-2.452-1.611-4.31-1.611c-1.389,0-2.695,0.363-3.919,1.087c-1.224,0.725-2.096,1.707-2.616,2.946
			c-0.522,1.24-0.781,2.951-0.781,5.134V90.19H693.952z"/>
		<path fill="#224F9F" d="M742.539,81.232l4.843,0.603c-0.764,2.847-2.178,5.055-4.244,6.627c-2.065,1.571-4.704,2.357-7.915,2.357
			c-4.045,0-7.252-1.252-9.621-3.758c-2.369-2.505-3.554-6.02-3.554-10.542c0-4.679,1.197-8.312,3.593-10.896
			c2.396-2.584,5.503-3.876,9.321-3.876c3.697,0,6.718,1.266,9.062,3.798c2.344,2.532,3.515,6.094,3.515,10.687
			c0,0.279-0.009,0.699-0.025,1.257h-20.622c0.173,3.056,1.032,5.396,2.578,7.02c1.544,1.624,3.471,2.436,5.78,2.436
			c1.718,0,3.185-0.454,4.4-1.362C740.864,84.672,741.827,83.223,742.539,81.232z M727.151,73.61h15.44
			c-0.209-2.34-0.799-4.095-1.772-5.265c-1.492-1.816-3.428-2.724-5.806-2.724c-2.153,0-3.963,0.725-5.429,2.174
			C728.118,69.245,727.308,71.183,727.151,73.61z"/>
		<path fill="#224F9F" d="M371.996,141.098l5.051,1.283c-1.059,4.174-2.964,7.357-5.715,9.547c-2.751,2.192-6.115,3.288-10.09,3.288
			c-4.114,0-7.46-0.843-10.038-2.528c-2.578-1.685-4.54-4.125-5.884-7.32c-1.346-3.195-2.018-6.627-2.018-10.294
			c0-3.998,0.759-7.486,2.278-10.463c1.519-2.977,3.68-5.239,6.483-6.784c2.803-1.545,5.889-2.318,9.256-2.318
			c3.819,0,7.03,0.978,9.634,2.934c2.604,1.956,4.418,4.706,5.442,8.25l-4.973,1.179c-0.885-2.794-2.17-4.828-3.854-6.103
			c-1.684-1.274-3.801-1.912-6.353-1.912c-2.934,0-5.386,0.707-7.355,2.122c-1.971,1.414-3.355,3.313-4.153,5.697
			c-0.798,2.383-1.198,4.841-1.198,7.373c0,3.265,0.473,6.116,1.419,8.551c0.946,2.437,2.418,4.257,4.414,5.462
			c1.996,1.204,4.157,1.807,6.483,1.807c2.829,0,5.225-0.82,7.186-2.462C369.974,146.765,371.301,144.328,371.996,141.098z"/>
		<path fill="#224F9F" d="M382.619,154.561v-27.816h4.218v4.217c1.076-1.973,2.07-3.274,2.981-3.903
			c0.911-0.628,1.914-0.943,3.007-0.943c1.579,0,3.185,0.507,4.817,1.519l-1.614,4.374c-1.145-0.681-2.291-1.021-3.437-1.021
			c-1.024,0-1.944,0.311-2.76,0.93c-0.816,0.62-1.397,1.479-1.744,2.58c-0.521,1.677-0.781,3.51-0.781,5.501v14.562H382.619z"/>
		<path fill="#224F9F" d="M419.358,145.603l4.843,0.603c-0.764,2.847-2.179,5.056-4.244,6.627c-2.066,1.571-4.704,2.357-7.915,2.357
			c-4.045,0-7.251-1.253-9.621-3.759c-2.369-2.506-3.554-6.02-3.554-10.543c0-4.679,1.198-8.311,3.593-10.896
			c2.396-2.584,5.502-3.876,9.322-3.876c3.697,0,6.718,1.266,9.061,3.798c2.343,2.532,3.515,6.094,3.515,10.686
			c0,0.28-0.009,0.699-0.026,1.258H403.71c0.173,3.056,1.033,5.395,2.578,7.02c1.545,1.624,3.472,2.436,5.78,2.436
			c1.719,0,3.185-0.454,4.4-1.361C417.683,149.043,418.646,147.594,419.358,145.603z M403.97,137.98h15.44
			c-0.208-2.339-0.798-4.094-1.771-5.264c-1.493-1.816-3.428-2.724-5.807-2.724c-2.152,0-3.962,0.725-5.429,2.174
			C404.938,133.616,404.126,135.554,403.97,137.98z"/>
		<path fill="#224F9F" d="M448.13,151.129c-1.736,1.484-3.407,2.532-5.012,3.143c-1.605,0.611-3.329,0.917-5.169,0.917
			c-3.038,0-5.373-0.747-7.004-2.239c-1.632-1.493-2.448-3.401-2.448-5.724c0-1.362,0.308-2.606,0.924-3.732
			c0.616-1.126,1.423-2.029,2.421-2.711c0.998-0.681,2.122-1.195,3.372-1.545c0.92-0.244,2.309-0.48,4.166-0.707
			c3.784-0.454,6.57-0.996,8.358-1.624c0.017-0.645,0.026-1.057,0.026-1.231c0-1.92-0.443-3.274-1.328-4.06
			c-1.198-1.065-2.977-1.598-5.337-1.598c-2.205,0-3.832,0.389-4.882,1.166c-1.05,0.777-1.827,2.152-2.331,4.125l-4.583-0.628
			c0.417-1.973,1.102-3.566,2.057-4.78c0.955-1.213,2.335-2.147,4.14-2.802c1.805-0.655,3.897-0.982,6.275-0.982
			c2.36,0,4.279,0.279,5.754,0.838c1.475,0.559,2.56,1.262,3.255,2.108c0.694,0.847,1.18,1.917,1.458,3.208
			c0.156,0.803,0.234,2.252,0.234,4.348v6.286c0,4.383,0.1,7.154,0.299,8.315c0.199,1.162,0.594,2.275,1.185,3.34h-4.895
			C448.581,153.583,448.27,152.439,448.13,151.129z M447.74,140.6c-1.702,0.699-4.253,1.293-7.655,1.781
			c-1.927,0.28-3.29,0.594-4.088,0.943c-0.799,0.35-1.415,0.86-1.849,1.532c-0.434,0.672-0.651,1.419-0.651,2.239
			c0,1.257,0.473,2.305,1.419,3.143c0.946,0.838,2.33,1.257,4.153,1.257c1.805,0,3.411-0.398,4.817-1.191
			c1.406-0.795,2.439-1.882,3.099-3.262c0.503-1.064,0.755-2.636,0.755-4.714V140.6z"/>
		<path fill="#224F9F" d="M469.976,150.344l0.677,4.164c-1.319,0.279-2.5,0.419-3.541,0.419c-1.701,0-3.021-0.27-3.957-0.811
			c-0.938-0.541-1.598-1.253-1.979-2.135c-0.382-0.882-0.573-2.737-0.573-5.566v-16.004h-3.437v-3.667h3.437v-6.888l4.661-2.829
			v9.717h4.713v3.667h-4.713v16.266c0,1.345,0.082,2.209,0.247,2.593c0.165,0.385,0.434,0.69,0.808,0.917
			c0.373,0.227,0.907,0.341,1.601,0.341C468.44,150.527,469.125,150.466,469.976,150.344z"/>
		<path fill="#224F9F" d="M474.584,121.585v-5.422h4.687v5.422H474.584z M474.584,154.561v-27.816h4.687v27.816H474.584z"/>
		<path fill="#224F9F" d="M494.087,154.561l-10.52-27.816h4.947l5.937,16.658c0.643,1.799,1.232,3.667,1.77,5.605
			c0.417-1.467,0.998-3.23,1.745-5.291l6.145-16.973h4.817l-10.468,27.816H494.087z"/>
		<path fill="#224F9F" d="M531.998,145.603l4.843,0.603c-0.764,2.847-2.178,5.056-4.244,6.627c-2.065,1.571-4.704,2.357-7.915,2.357
			c-4.045,0-7.252-1.253-9.621-3.759c-2.369-2.506-3.554-6.02-3.554-10.543c0-4.679,1.197-8.311,3.593-10.896
			c2.396-2.584,5.503-3.876,9.321-3.876c3.697,0,6.718,1.266,9.061,3.798c2.344,2.532,3.515,6.094,3.515,10.686
			c0,0.28-0.009,0.699-0.025,1.258H516.35c0.173,3.056,1.032,5.395,2.578,7.02c1.544,1.624,3.471,2.436,5.78,2.436
			c1.718,0,3.185-0.454,4.4-1.361C530.323,149.043,531.286,147.594,531.998,145.603z M516.61,137.98h15.44
			c-0.209-2.339-0.799-4.094-1.771-5.264c-1.492-1.816-3.428-2.724-5.806-2.724c-2.153,0-3.963,0.725-5.429,2.174
			C517.577,133.616,516.767,135.554,516.61,137.98z"/>
		<path fill="#224F9F" d="M558.244,154.561v-38.398h27.601v4.531h-22.549v11.76h21.116v4.505h-21.116v13.07h23.434v4.531H558.244z"
			/>
		<path fill="#224F9F" d="M611.231,154.561v-4.086c-2.153,3.143-5.078,4.715-8.775,4.715c-1.632,0-3.154-0.314-4.569-0.943
			c-1.415-0.629-2.465-1.418-3.15-2.37c-0.686-0.951-1.168-2.117-1.445-3.497c-0.191-0.925-0.286-2.392-0.286-4.4v-17.234h4.687
			v15.428c0,2.462,0.096,4.121,0.286,4.977c0.295,1.239,0.92,2.213,1.875,2.92c0.954,0.707,2.135,1.061,3.541,1.061
			s2.726-0.361,3.958-1.087c1.232-0.724,2.104-1.711,2.617-2.959c0.512-1.249,0.767-3.061,0.767-5.436v-14.903h4.687v27.816H611.231
			z"/>
		<path fill="#224F9F" d="M622.714,154.561v-27.816h4.218v4.217c1.076-1.973,2.07-3.274,2.982-3.903
			c0.912-0.628,1.914-0.943,3.008-0.943c1.579,0,3.185,0.507,4.816,1.519l-1.614,4.374c-1.146-0.681-2.291-1.021-3.437-1.021
			c-1.024,0-1.944,0.311-2.76,0.93c-0.816,0.62-1.397,1.479-1.745,2.58c-0.521,1.677-0.781,3.51-0.781,5.501v14.562H622.714z"/>
		<path fill="#224F9F" d="M638.778,140.652c0-5.151,1.423-8.966,4.271-11.446c2.378-2.06,5.276-3.091,8.696-3.091
			c3.802,0,6.908,1.253,9.321,3.759c2.413,2.506,3.619,5.968,3.619,10.385c0,3.579-0.533,6.396-1.6,8.447
			c-1.067,2.052-2.622,3.645-4.661,4.779c-2.04,1.135-4.266,1.703-6.679,1.703c-3.871,0-7-1.248-9.387-3.746
			C639.972,148.947,638.778,145.35,638.778,140.652z M643.596,140.652c0,3.562,0.771,6.23,2.317,8.002
			c1.544,1.772,3.488,2.658,5.832,2.658c2.326,0,4.262-0.891,5.807-2.672c1.545-1.78,2.317-4.496,2.317-8.146
			c0-3.439-0.777-6.046-2.33-7.818c-1.554-1.772-3.485-2.658-5.794-2.658c-2.344,0-4.288,0.882-5.832,2.645
			C644.367,134.428,643.596,137.09,643.596,140.652z"/>
		<path fill="#224F9F" d="M670.18,165.221v-38.477h4.271v3.615c1.007-1.415,2.144-2.475,3.411-3.183
			c1.267-0.707,2.803-1.061,4.608-1.061c2.36,0,4.443,0.611,6.249,1.833c1.806,1.222,3.168,2.947,4.088,5.173
			c0.92,2.227,1.38,4.667,1.38,7.321c0,2.846-0.507,5.408-1.522,7.687c-1.016,2.279-2.491,4.025-4.427,5.239
			c-1.936,1.213-3.971,1.82-6.106,1.82c-1.562,0-2.965-0.332-4.205-0.995c-1.241-0.664-2.262-1.502-3.06-2.515v13.541H670.18z
			 M674.424,140.81c0,3.58,0.721,6.226,2.161,7.937c1.441,1.711,3.185,2.566,5.234,2.566c2.083,0,3.866-0.886,5.351-2.658
			c1.484-1.772,2.227-4.519,2.227-8.237c0-3.545-0.726-6.199-2.175-7.963c-1.449-1.763-3.181-2.645-5.194-2.645
			c-1.996,0-3.763,0.939-5.299,2.816C675.192,134.502,674.424,137.23,674.424,140.81z"/>
		<path fill="#224F9F" d="M718.767,145.603l4.843,0.603c-0.764,2.847-2.178,5.056-4.244,6.627c-2.065,1.571-4.704,2.357-7.915,2.357
			c-4.045,0-7.252-1.253-9.621-3.759c-2.369-2.506-3.554-6.02-3.554-10.543c0-4.679,1.197-8.311,3.593-10.896
			c2.396-2.584,5.503-3.876,9.321-3.876c3.697,0,6.718,1.266,9.062,3.798c2.344,2.532,3.515,6.094,3.515,10.686
			c0,0.28-0.009,0.699-0.025,1.258h-20.622c0.173,3.056,1.032,5.395,2.578,7.02c1.544,1.624,3.471,2.436,5.78,2.436
			c1.718,0,3.185-0.454,4.4-1.361C717.092,149.043,718.055,147.594,718.767,145.603z M703.379,137.98h15.44
			c-0.209-2.339-0.799-4.094-1.771-5.264c-1.492-1.816-3.428-2.724-5.806-2.724c-2.153,0-3.963,0.725-5.429,2.174
			C704.346,133.616,703.535,135.554,703.379,137.98z"/>
		<path fill="#224F9F" d="M744.909,154.561v-38.398h14.398c2.534,0,4.47,0.122,5.807,0.367c1.875,0.314,3.445,0.913,4.713,1.794
			c1.267,0.882,2.287,2.117,3.06,3.706c0.772,1.589,1.158,3.335,1.158,5.238c0,3.266-1.033,6.029-3.099,8.29
			c-2.065,2.261-5.798,3.392-11.196,3.392h-9.79v15.61H744.909z M749.96,134.418h9.868c3.264,0,5.581-0.611,6.952-1.833
			c1.371-1.222,2.058-2.942,2.058-5.16c0-1.606-0.404-2.981-1.211-4.125c-0.808-1.143-1.871-1.899-3.19-2.266
			c-0.851-0.227-2.422-0.34-4.713-0.34h-9.765V134.418z"/>
		<path fill="#224F9F" d="M779.825,154.561v-27.816h4.218v4.217c1.076-1.973,2.07-3.274,2.981-3.903
			c0.912-0.628,1.914-0.943,3.008-0.943c1.579,0,3.186,0.507,4.816,1.519l-1.614,4.374c-1.146-0.681-2.291-1.021-3.437-1.021
			c-1.024,0-1.944,0.311-2.76,0.93c-0.816,0.62-1.398,1.479-1.745,2.58c-0.521,1.677-0.781,3.51-0.781,5.501v14.562H779.825z"/>
		<path fill="#224F9F" d="M795.891,140.652c0-5.151,1.423-8.966,4.271-11.446c2.378-2.06,5.276-3.091,8.696-3.091
			c3.802,0,6.908,1.253,9.321,3.759c2.413,2.506,3.619,5.968,3.619,10.385c0,3.579-0.533,6.396-1.601,8.447
			c-1.067,2.052-2.622,3.645-4.661,4.779c-2.04,1.135-4.266,1.703-6.679,1.703c-3.871,0-7-1.248-9.387-3.746
			C797.084,148.947,795.891,145.35,795.891,140.652z M800.708,140.652c0,3.562,0.771,6.23,2.317,8.002
			c1.544,1.772,3.488,2.658,5.832,2.658c2.326,0,4.262-0.891,5.807-2.672c1.545-1.78,2.317-4.496,2.317-8.146
			c0-3.439-0.777-6.046-2.33-7.818c-1.554-1.772-3.485-2.658-5.794-2.658c-2.344,0-4.288,0.882-5.832,2.645
			C801.479,134.428,800.708,137.09,800.708,140.652z"/>
		<path fill="#224F9F" d="M826.434,156.865l4.557,0.682c0.19,1.414,0.72,2.444,1.588,3.09c1.163,0.873,2.751,1.31,4.765,1.31
			c2.17,0,3.845-0.437,5.025-1.31c1.181-0.873,1.979-2.095,2.396-3.666c0.243-0.961,0.355-2.978,0.339-6.051
			c-2.049,2.427-4.6,3.641-7.655,3.641c-3.802,0-6.744-1.379-8.827-4.139c-2.083-2.759-3.124-6.067-3.124-9.927
			c0-2.654,0.477-5.103,1.432-7.347c0.955-2.244,2.339-3.977,4.153-5.199c1.813-1.222,3.944-1.833,6.393-1.833
			c3.263,0,5.953,1.327,8.071,3.981v-3.353h4.322v24.045c0,4.33-0.439,7.4-1.315,9.206c-0.877,1.808-2.266,3.235-4.166,4.283
			c-1.901,1.047-4.24,1.571-7.018,1.571c-3.298,0-5.963-0.747-7.994-2.239C827.345,162.117,826.363,159.868,826.434,156.865z
			 M830.312,140.154c0,3.65,0.721,6.312,2.161,7.989c1.441,1.676,3.246,2.515,5.416,2.515c2.152,0,3.958-0.834,5.416-2.502
			c1.458-1.667,2.188-4.282,2.188-7.845c0-3.404-0.751-5.972-2.253-7.7c-1.501-1.729-3.31-2.593-5.429-2.593
			c-2.083,0-3.853,0.851-5.311,2.554C831.042,134.274,830.312,136.802,830.312,140.154z"/>
		<path fill="#224F9F" d="M856.897,154.561v-27.816h4.218v4.217c1.076-1.973,2.07-3.274,2.982-3.903
			c0.912-0.628,1.914-0.943,3.008-0.943c1.579,0,3.185,0.507,4.816,1.519l-1.614,4.374c-1.146-0.681-2.291-1.021-3.437-1.021
			c-1.024,0-1.944,0.311-2.76,0.93c-0.816,0.62-1.397,1.479-1.745,2.58c-0.521,1.677-0.781,3.51-0.781,5.501v14.562H856.897z"/>
		<path fill="#224F9F" d="M892.751,151.129c-1.736,1.484-3.407,2.532-5.013,3.143c-1.606,0.611-3.329,0.917-5.168,0.917
			c-3.038,0-5.373-0.747-7.005-2.239c-1.632-1.493-2.447-3.401-2.447-5.724c0-1.362,0.308-2.606,0.925-3.732
			c0.615-1.126,1.423-2.029,2.421-2.711c0.998-0.681,2.122-1.195,3.372-1.545c0.92-0.244,2.309-0.48,4.166-0.707
			c3.784-0.454,6.57-0.996,8.358-1.624c0.017-0.645,0.025-1.057,0.025-1.231c0-1.92-0.442-3.274-1.327-4.06
			c-1.198-1.065-2.978-1.598-5.338-1.598c-2.205,0-3.832,0.389-4.882,1.166c-1.051,0.777-1.827,2.152-2.331,4.125l-4.582-0.628
			c0.416-1.973,1.102-3.566,2.057-4.78c0.954-1.213,2.334-2.147,4.14-2.802c1.806-0.655,3.897-0.982,6.275-0.982
			c2.36,0,4.278,0.279,5.754,0.838c1.476,0.559,2.56,1.262,3.255,2.108c0.694,0.847,1.181,1.917,1.458,3.208
			c0.156,0.803,0.234,2.252,0.234,4.348v6.286c0,4.383,0.1,7.154,0.3,8.315c0.199,1.162,0.595,2.275,1.185,3.34h-4.895
			C893.202,153.583,892.89,152.439,892.751,151.129z M892.36,140.6c-1.701,0.699-4.253,1.293-7.655,1.781
			c-1.927,0.28-3.29,0.594-4.088,0.943c-0.799,0.35-1.415,0.86-1.849,1.532c-0.435,0.672-0.651,1.419-0.651,2.239
			c0,1.257,0.473,2.305,1.419,3.143c0.946,0.838,2.331,1.257,4.153,1.257c1.806,0,3.411-0.398,4.817-1.191
			c1.405-0.795,2.438-1.882,3.099-3.262c0.503-1.064,0.755-2.636,0.755-4.714V140.6z"/>
		<path fill="#224F9F" d="M904.363,154.561v-27.816h4.192v3.903c0.868-1.362,2.022-2.458,3.463-3.287
			c1.44-0.829,3.081-1.244,4.922-1.244c2.048,0,3.727,0.428,5.038,1.283c1.311,0.856,2.234,2.052,2.773,3.588
			c2.188-3.248,5.034-4.872,8.541-4.872c2.742,0,4.852,0.764,6.327,2.292c1.475,1.528,2.213,3.881,2.213,7.059v19.094h-4.661
			v-17.522c0-1.886-0.151-3.244-0.455-4.073c-0.304-0.829-0.855-1.497-1.653-2.003c-0.799-0.506-1.736-0.76-2.812-0.76
			c-1.944,0-3.559,0.651-4.843,1.951c-1.285,1.301-1.927,3.383-1.927,6.247v16.161h-4.687v-18.072c0-2.096-0.383-3.667-1.146-4.715
			c-0.764-1.048-2.014-1.572-3.749-1.572c-1.319,0-2.539,0.35-3.658,1.048c-1.12,0.698-1.932,1.72-2.435,3.064
			c-0.504,1.345-0.755,3.283-0.755,5.815v14.432H904.363z"/>
		<path fill="#224F9F" d="M948.784,154.561v-27.816h4.192v3.903c0.868-1.362,2.022-2.458,3.463-3.287
			c1.44-0.829,3.081-1.244,4.922-1.244c2.048,0,3.727,0.428,5.038,1.283c1.311,0.856,2.234,2.052,2.773,3.588
			c2.188-3.248,5.034-4.872,8.541-4.872c2.742,0,4.852,0.764,6.327,2.292c1.475,1.528,2.213,3.881,2.213,7.059v19.094h-4.661
			v-17.522c0-1.886-0.151-3.244-0.455-4.073c-0.304-0.829-0.855-1.497-1.653-2.003c-0.799-0.506-1.736-0.76-2.812-0.76
			c-1.944,0-3.559,0.651-4.843,1.951c-1.285,1.301-1.927,3.383-1.927,6.247v16.161h-4.687v-18.072c0-2.096-0.383-3.667-1.146-4.715
			c-0.764-1.048-2.014-1.572-3.749-1.572c-1.319,0-2.539,0.35-3.658,1.048c-1.12,0.698-1.932,1.72-2.435,3.064
			c-0.504,1.345-0.755,3.283-0.755,5.815v14.432H948.784z"/>
		<path fill="#224F9F" d="M1012.134,145.603l4.843,0.603c-0.764,2.847-2.178,5.056-4.244,6.627
			c-2.065,1.571-4.704,2.357-7.915,2.357c-4.045,0-7.252-1.253-9.621-3.759c-2.369-2.506-3.554-6.02-3.554-10.543
			c0-4.679,1.197-8.311,3.593-10.896c2.396-2.584,5.503-3.876,9.321-3.876c3.697,0,6.718,1.266,9.062,3.798
			c2.344,2.532,3.515,6.094,3.515,10.686c0,0.28-0.009,0.699-0.025,1.258h-20.622c0.173,3.056,1.032,5.395,2.578,7.02
			c1.544,1.624,3.471,2.436,5.78,2.436c1.718,0,3.185-0.454,4.4-1.361C1010.459,149.043,1011.422,147.594,1012.134,145.603z
			 M996.746,137.98h15.44c-0.209-2.339-0.799-4.094-1.772-5.264c-1.492-1.816-3.428-2.724-5.806-2.724
			c-2.153,0-3.963,0.725-5.429,2.174C997.713,133.616,996.902,135.554,996.746,137.98z"/>
		<path fill="#224F9F" d="M342.417,205.022c0-5.15,1.423-8.966,4.27-11.446c2.378-2.06,5.277-3.091,8.697-3.091
			c3.802,0,6.909,1.254,9.322,3.759c2.413,2.506,3.619,5.968,3.619,10.386c0,3.579-0.534,6.396-1.602,8.447
			c-1.067,2.052-2.621,3.645-4.661,4.779c-2.04,1.135-4.266,1.703-6.679,1.703c-3.871,0-7-1.248-9.387-3.746
			C343.61,213.317,342.417,209.72,342.417,205.022z M347.234,205.022c0,3.562,0.772,6.23,2.317,8.002
			c1.545,1.773,3.489,2.658,5.832,2.658c2.326,0,4.261-0.891,5.807-2.672c1.544-1.78,2.317-4.496,2.317-8.145
			c0-3.439-0.777-6.046-2.331-7.818c-1.554-1.771-3.485-2.658-5.793-2.658c-2.343,0-4.288,0.882-5.832,2.645
			C348.006,198.798,347.234,201.46,347.234,205.022z"/>
		<path fill="#224F9F" d="M374.938,218.931v-24.149h-4.14v-3.667h4.14v-2.96c0-1.868,0.165-3.256,0.495-4.164
			c0.451-1.222,1.246-2.213,2.382-2.973c1.137-0.76,2.729-1.14,4.778-1.14c1.319,0,2.777,0.157,4.374,0.472l-0.703,4.112
			c-0.972-0.175-1.892-0.263-2.76-0.263c-1.423,0-2.431,0.307-3.02,0.917c-0.59,0.611-0.885,1.755-0.885,3.432v2.566h5.39v3.667
			h-5.39v24.149H374.938z"/>
		<path fill="#224F9F" d="M413.683,214.714l0.677,4.164c-1.319,0.279-2.499,0.419-3.541,0.419c-1.701,0-3.021-0.271-3.958-0.812
			c-0.938-0.541-1.598-1.253-1.979-2.135c-0.382-0.882-0.573-2.737-0.573-5.566v-16.004h-3.437v-3.667h3.437v-6.889l4.661-2.828
			v9.717h4.713v3.667h-4.713v16.266c0,1.345,0.082,2.209,0.247,2.593c0.165,0.385,0.434,0.69,0.808,0.917
			c0.373,0.227,0.907,0.341,1.601,0.341C412.146,214.897,412.832,214.836,413.683,214.714z"/>
		<path fill="#224F9F" d="M418.265,218.931v-38.397h4.687v13.776c2.188-2.549,4.947-3.824,8.28-3.824
			c2.048,0,3.828,0.406,5.338,1.219c1.51,0.811,2.591,1.934,3.242,3.365c0.651,1.432,0.976,3.51,0.976,6.234v17.627h-4.687v-17.627
			c0-2.357-0.508-4.073-1.523-5.147c-1.015-1.073-2.452-1.61-4.309-1.61c-1.389,0-2.695,0.362-3.919,1.087
			c-1.224,0.725-2.096,1.707-2.617,2.946c-0.52,1.24-0.781,2.951-0.781,5.134v15.218H418.265z"/>
		<path fill="#224F9F" d="M466.851,209.973l4.843,0.603c-0.764,2.847-2.179,5.056-4.244,6.627c-2.066,1.571-4.704,2.357-7.915,2.357
			c-4.045,0-7.251-1.253-9.621-3.759c-2.369-2.506-3.554-6.02-3.554-10.543c0-4.679,1.198-8.311,3.593-10.895
			c2.396-2.584,5.503-3.877,9.322-3.877c3.697,0,6.718,1.267,9.061,3.799c2.343,2.531,3.515,6.094,3.515,10.686
			c0,0.28-0.009,0.699-0.026,1.258h-20.622c0.173,3.056,1.033,5.396,2.578,7.02c1.545,1.624,3.472,2.436,5.78,2.436
			c1.719,0,3.186-0.454,4.4-1.361C465.176,213.413,466.139,211.964,466.851,209.973z M451.463,202.351h15.44
			c-0.208-2.34-0.798-4.095-1.771-5.265c-1.493-1.815-3.428-2.724-5.807-2.724c-2.152,0-3.962,0.725-5.429,2.174
			S451.619,199.924,451.463,202.351z"/>
		<path fill="#224F9F" d="M493.098,218.931v-38.397h27.6v4.531h-22.549v11.76h21.116v4.505h-21.116v13.07h23.434v4.531H493.098z"/>
		<path fill="#224F9F" d="M546.085,218.931v-4.086c-2.153,3.143-5.078,4.715-8.775,4.715c-1.632,0-3.154-0.314-4.569-0.943
			c-1.415-0.629-2.465-1.418-3.15-2.37c-0.687-0.951-1.168-2.117-1.445-3.497c-0.191-0.925-0.286-2.392-0.286-4.4v-17.234h4.686
			v15.428c0,2.462,0.096,4.121,0.286,4.976c0.295,1.239,0.92,2.213,1.875,2.92c0.954,0.707,2.135,1.06,3.541,1.06
			c1.406,0,2.726-0.361,3.958-1.087c1.232-0.724,2.104-1.711,2.617-2.959c0.512-1.249,0.768-3.061,0.768-5.436v-14.903h4.687v27.816
			H546.085z"/>
		<path fill="#224F9F" d="M557.567,218.931v-27.816h4.218v4.217c1.076-1.973,2.07-3.273,2.981-3.902
			c0.912-0.629,1.914-0.943,3.008-0.943c1.579,0,3.186,0.507,4.816,1.52l-1.614,4.374c-1.145-0.681-2.291-1.021-3.437-1.021
			c-1.024,0-1.944,0.311-2.76,0.93c-0.816,0.62-1.397,1.48-1.745,2.58c-0.521,1.677-0.781,3.51-0.781,5.501v14.562H557.567z"/>
		<path fill="#224F9F" d="M573.632,205.022c0-5.15,1.423-8.966,4.271-11.446c2.378-2.06,5.276-3.091,8.696-3.091
			c3.802,0,6.908,1.254,9.321,3.759c2.413,2.506,3.619,5.968,3.619,10.386c0,3.579-0.533,6.396-1.601,8.447
			c-1.067,2.052-2.622,3.645-4.661,4.779c-2.04,1.135-4.266,1.703-6.679,1.703c-3.871,0-7-1.248-9.387-3.746
			C574.825,213.317,573.632,209.72,573.632,205.022z M578.449,205.022c0,3.562,0.772,6.23,2.317,8.002
			c1.544,1.773,3.488,2.658,5.832,2.658c2.326,0,4.262-0.891,5.807-2.672c1.545-1.78,2.317-4.496,2.317-8.145
			c0-3.439-0.777-6.046-2.33-7.818c-1.554-1.771-3.485-2.658-5.794-2.658c-2.344,0-4.288,0.882-5.832,2.645
			C579.221,198.798,578.449,201.46,578.449,205.022z"/>
		<path fill="#224F9F" d="M605.033,229.591v-38.477h4.271v3.614c1.007-1.414,2.144-2.475,3.411-3.182
			c1.267-0.707,2.803-1.062,4.608-1.062c2.36,0,4.443,0.612,6.249,1.834c1.806,1.223,3.168,2.946,4.088,5.173
			c0.92,2.227,1.38,4.667,1.38,7.321c0,2.846-0.507,5.408-1.522,7.686c-1.016,2.279-2.491,4.025-4.427,5.239
			c-1.935,1.213-3.971,1.82-6.105,1.82c-1.562,0-2.965-0.332-4.205-0.995c-1.241-0.664-2.262-1.502-3.06-2.515v13.541H605.033z
			 M609.277,205.18c0,3.58,0.721,6.226,2.161,7.936c1.441,1.711,3.186,2.566,5.234,2.566c2.083,0,3.866-0.886,5.35-2.658
			c1.484-1.772,2.227-4.519,2.227-8.237c0-3.545-0.726-6.199-2.175-7.963s-3.181-2.646-5.194-2.646
			c-1.996,0-3.763,0.939-5.299,2.815C610.046,198.872,609.277,201.601,609.277,205.18z"/>
		<path fill="#224F9F" d="M653.62,209.973l4.843,0.603c-0.764,2.847-2.178,5.056-4.244,6.627c-2.066,1.571-4.704,2.357-7.915,2.357
			c-4.045,0-7.252-1.253-9.621-3.759c-2.369-2.506-3.554-6.02-3.554-10.543c0-4.679,1.197-8.311,3.593-10.895
			s5.503-3.877,9.321-3.877c3.697,0,6.718,1.267,9.061,3.799c2.344,2.531,3.515,6.094,3.515,10.686c0,0.28-0.009,0.699-0.025,1.258
			h-20.622c0.173,3.056,1.032,5.396,2.578,7.02c1.544,1.624,3.471,2.436,5.78,2.436c1.718,0,3.185-0.454,4.4-1.361
			C651.945,213.413,652.908,211.964,653.62,209.973z M638.232,202.351h15.441c-0.209-2.34-0.799-4.095-1.772-5.265
			c-1.492-1.815-3.428-2.724-5.806-2.724c-2.153,0-3.963,0.725-5.429,2.174C639.199,197.985,638.389,199.924,638.232,202.351z"/>
		<path fill="#224F9F" d="M682.393,215.499c-1.736,1.484-3.407,2.532-5.013,3.144c-1.606,0.611-3.329,0.917-5.168,0.917
			c-3.038,0-5.373-0.747-7.005-2.239c-1.632-1.493-2.447-3.401-2.447-5.724c0-1.362,0.308-2.606,0.925-3.732
			c0.615-1.126,1.423-2.029,2.421-2.711c0.998-0.681,2.122-1.195,3.372-1.545c0.92-0.244,2.309-0.48,4.166-0.707
			c3.784-0.454,6.57-0.996,8.358-1.624c0.017-0.646,0.025-1.057,0.025-1.231c0-1.921-0.442-3.273-1.327-4.06
			c-1.198-1.065-2.978-1.598-5.338-1.598c-2.205,0-3.832,0.389-4.882,1.165c-1.051,0.777-1.827,2.152-2.331,4.126l-4.582-0.629
			c0.416-1.973,1.102-3.566,2.057-4.78c0.954-1.213,2.334-2.147,4.14-2.803c1.806-0.654,3.897-0.982,6.275-0.982
			c2.36,0,4.278,0.28,5.754,0.839c1.476,0.559,2.56,1.262,3.255,2.108c0.694,0.847,1.181,1.916,1.458,3.208
			c0.156,0.804,0.234,2.253,0.234,4.349v6.286c0,4.383,0.1,7.154,0.3,8.315c0.199,1.162,0.595,2.275,1.185,3.34h-4.895
			C682.844,217.953,682.531,216.81,682.393,215.499z M682.002,204.97c-1.701,0.699-4.253,1.293-7.655,1.781
			c-1.927,0.28-3.29,0.594-4.088,0.943c-0.799,0.35-1.415,0.86-1.849,1.532c-0.435,0.672-0.651,1.419-0.651,2.239
			c0,1.257,0.473,2.305,1.419,3.144c0.946,0.838,2.331,1.257,4.153,1.257c1.806,0,3.411-0.397,4.817-1.191
			c1.405-0.795,2.438-1.882,3.099-3.262c0.503-1.064,0.755-2.636,0.755-4.714V204.97z"/>
		<path fill="#224F9F" d="M694.005,218.931v-27.816h4.219v3.955c2.031-3.056,4.964-4.584,8.801-4.584
			c1.666,0,3.198,0.302,4.596,0.904c1.397,0.603,2.442,1.393,3.138,2.37c0.693,0.979,1.18,2.14,1.458,3.483
			c0.173,0.874,0.26,2.401,0.26,4.584v17.104h-4.687v-16.92c0-1.921-0.183-3.357-0.547-4.309c-0.364-0.952-1.012-1.712-1.94-2.279
			c-0.929-0.567-2.018-0.851-3.268-0.851c-1.997,0-3.72,0.637-5.169,1.911c-1.449,1.275-2.174,3.693-2.174,7.256v15.191H694.005z"/>
		<path fill="#224F9F" d="M764.124,180.533h5.052v22.185c0,3.859-0.435,6.924-1.302,9.193c-0.868,2.27-2.435,4.116-4.7,5.54
			c-2.266,1.423-5.238,2.135-8.918,2.135c-3.576,0-6.501-0.62-8.774-1.86c-2.274-1.239-3.897-3.033-4.869-5.382
			c-0.973-2.349-1.458-5.558-1.458-9.626v-22.185h5.051v22.158c0,3.336,0.309,5.793,0.925,7.373
			c0.616,1.581,1.675,2.799,3.177,3.654c1.501,0.855,3.337,1.283,5.507,1.283c3.714,0,6.361-0.847,7.941-2.541
			c1.579-1.693,2.369-4.95,2.369-9.77V180.533z"/>
		<path fill="#224F9F" d="M776.987,218.931v-27.816h4.219v3.955c2.031-3.056,4.964-4.584,8.801-4.584
			c1.666,0,3.198,0.302,4.596,0.904c1.397,0.603,2.442,1.393,3.138,2.37c0.693,0.979,1.18,2.14,1.458,3.483
			c0.173,0.874,0.26,2.401,0.26,4.584v17.104h-4.687v-16.92c0-1.921-0.183-3.357-0.547-4.309c-0.364-0.952-1.012-1.712-1.939-2.279
			c-0.929-0.567-2.019-0.851-3.268-0.851c-1.997,0-3.72,0.637-5.169,1.911c-1.449,1.275-2.174,3.693-2.174,7.256v15.191H776.987z"/>
		<path fill="#224F9F" d="M806.67,185.954v-5.421h4.687v5.421H806.67z M806.67,218.931v-27.816h4.687v27.816H806.67z"/>
		<path fill="#224F9F" d="M816.747,205.022c0-5.15,1.423-8.966,4.271-11.446c2.378-2.06,5.276-3.091,8.696-3.091
			c3.802,0,6.908,1.254,9.321,3.759c2.413,2.506,3.619,5.968,3.619,10.386c0,3.579-0.533,6.396-1.601,8.447
			c-1.067,2.052-2.622,3.645-4.661,4.779c-2.04,1.135-4.266,1.703-6.679,1.703c-3.871,0-7-1.248-9.387-3.746
			C817.94,213.317,816.747,209.72,816.747,205.022z M821.564,205.022c0,3.562,0.771,6.23,2.317,8.002
			c1.544,1.773,3.488,2.658,5.832,2.658c2.326,0,4.262-0.891,5.807-2.672c1.545-1.78,2.317-4.496,2.317-8.145
			c0-3.439-0.777-6.046-2.33-7.818c-1.554-1.771-3.485-2.658-5.794-2.658c-2.344,0-4.288,0.882-5.832,2.645
			C822.336,198.798,821.564,201.46,821.564,205.022z"/>
		<path fill="#224F9F" d="M848.148,218.931v-27.816h4.219v3.955c2.031-3.056,4.964-4.584,8.801-4.584
			c1.666,0,3.198,0.302,4.596,0.904c1.396,0.603,2.442,1.393,3.138,2.37c0.693,0.979,1.18,2.14,1.458,3.483
			c0.173,0.874,0.26,2.401,0.26,4.584v17.104h-4.687v-16.92c0-1.921-0.183-3.357-0.547-4.309c-0.364-0.952-1.012-1.712-1.939-2.279
			c-0.929-0.567-2.019-0.851-3.268-0.851c-1.997,0-3.72,0.637-5.169,1.911c-1.449,1.275-2.174,3.693-2.174,7.256v15.191H848.148z"/>
	</g>
</g>
</svg>
