<?xml version="1.0" encoding="utf-8"?>
<!-- Generator: Adobe Illustrator 17.0.0, SVG Export Plug-In . SVG Version: 6.00 Build 0)  -->
<!DOCTYPE svg PUBLIC "-//W3C//DTD SVG 1.1//EN" "http://www.w3.org/Graphics/SVG/1.1/DTD/svg11.dtd">
<svg version="1.1" id="Layer_2" xmlns="http://www.w3.org/2000/svg" xmlns:xlink="http://www.w3.org/1999/xlink" x="0px" y="0px"
	 width="220px" height="220px" viewBox="0 0 220 220" enable-background="new 0 0 220 220" xml:space="preserve">
<g>
	<path fill="#FFFFFF" d="M41.417,209.765v-9.852c0-0.191,0.191-0.383,0.383-0.383h0.765c0.191,0,0.383,0.191,0.383,0.383v8.322
		c0,0.191,0.191,0.383,0.383,0.383h5.165c0.191,0,0.383,0.191,0.383,0.383v0.67c0,0.191-0.191,0.383-0.383,0.383h-6.791
		C41.513,210.148,41.417,209.957,41.417,209.765z"/>
	<path fill="#FFFFFF" d="M63.8,207.565v2.2c0,0.191-0.191,0.383-0.383,0.383h-0.765c-0.191,0-0.383-0.191-0.383-0.383v-1.913
		c0-0.096,0-0.096,0-0.191l-0.287-0.574c-0.096-0.096-0.191-0.191-0.383-0.191h-4.209c-0.191,0-0.287,0.096-0.383,0.191
		l-0.287,0.574c0,0.096,0,0.096,0,0.191v1.913c0,0.191-0.191,0.383-0.383,0.383h-0.765c-0.191,0-0.383-0.191-0.383-0.383v-2.2
		c0-0.096,0-0.096,0-0.191l3.348-7.557c0.096-0.096,0.191-0.191,0.383-0.191h1.148c0.191,0,0.287,0.096,0.383,0.191l3.348,7.557
		C63.704,207.47,63.8,207.47,63.8,207.565z M58.252,205.461h2.487c0.287,0,0.478-0.287,0.383-0.478l-1.53-3.539h-0.096l-1.53,3.539
		C57.774,205.174,57.965,205.461,58.252,205.461z"/>
	<path fill="#FFFFFF" d="M70.4,199.913c0-0.191,0.191-0.383,0.383-0.383h4.496c1.722,0,2.487,0.67,2.487,2.2v1.148
		c0,0.67-0.191,1.148-0.574,1.435c-0.191,0.191-0.191,0.478,0,0.574c0.383,0.287,0.574,0.861,0.574,1.53v1.339
		c0,1.626-0.861,2.296-2.487,2.296h-4.496c-0.191,0-0.383-0.191-0.383-0.383V199.913z M75.087,204.026
		c0.957,0,1.148-0.383,1.148-1.148v-0.861c0-0.765-0.287-1.052-1.148-1.052h-2.774c-0.191,0-0.383,0.191-0.383,0.383v2.296
		c0,0.191,0.191,0.383,0.383,0.383L75.087,204.026L75.087,204.026z M75.087,208.713c0.957,0,1.148-0.287,1.148-1.052v-1.052
		c0-0.765-0.287-1.052-1.148-1.052h-2.774c-0.191,0-0.383,0.191-0.383,0.383v2.487c0,0.191,0.191,0.383,0.383,0.383h2.774V208.713z"
		/>
	<path fill="#FFFFFF" d="M87.139,210.148c-1.722,0-2.487-0.67-2.487-2.296v-6.026c0-1.626,0.861-2.2,2.487-2.2h2.87
		c1.722,0,2.487,0.67,2.487,2.2v6.026c0,1.626-0.861,2.296-2.487,2.296H87.139z M89.817,208.713c0.957,0,1.148-0.287,1.148-1.052
		v-5.452c0-0.765-0.287-1.052-1.148-1.052H87.33c-0.957,0-1.148,0.287-1.148,1.052v5.452c0,0.765,0.287,1.052,1.148,1.052H89.817z"
		/>
	<path fill="#FFFFFF" d="M105.409,209.765v-1.53c0-0.096,0-0.191-0.096-0.191l-1.53-2.104c-0.096-0.096-0.191-0.191-0.287-0.191
		h-2.009c-0.191,0-0.383,0.191-0.383,0.383v3.635c0,0.191-0.191,0.383-0.383,0.383h-0.765c-0.191,0-0.383-0.191-0.383-0.383v-9.852
		c0-0.191,0.191-0.383,0.383-0.383h4.496c1.722,0,2.487,0.67,2.487,2.2v1.53c0,0.957-0.383,1.626-1.148,1.913
		c-0.191,0.096-0.383,0.383-0.191,0.574l1.243,1.722c0,0.096,0.096,0.096,0.096,0.191v1.913c0,0.191-0.191,0.383-0.383,0.383h-0.765
		C105.6,210.148,105.409,209.957,105.409,209.765z M104.261,204.313c0.957,0,1.148-0.287,1.148-1.052v-1.148
		c0-0.765-0.287-1.052-1.148-1.052h-2.774c-0.191,0-0.383,0.191-0.383,0.383v2.583c0,0.191,0.191,0.383,0.383,0.383h2.774V204.313z"
		/>
	<path fill="#FFFFFF" d="M122.052,207.565v2.2c0,0.191-0.191,0.383-0.383,0.383h-0.765c-0.191,0-0.383-0.191-0.383-0.383v-1.913
		c0-0.096,0-0.096,0-0.191l-0.287-0.574c-0.096-0.096-0.191-0.191-0.383-0.191h-4.113c-0.191,0-0.287,0.096-0.383,0.191
		l-0.287,0.574c0,0.096,0,0.096,0,0.191v1.913c0,0.191-0.191,0.383-0.383,0.383h-0.861c-0.191,0-0.383-0.191-0.383-0.383v-2.2
		c0-0.096,0-0.096,0-0.191l3.348-7.557c0.096-0.096,0.191-0.191,0.383-0.191h1.148c0.191,0,0.287,0.096,0.383,0.191l3.348,7.557
		C122.052,207.47,122.052,207.47,122.052,207.565z M116.504,205.461h2.487c0.287,0,0.478-0.287,0.383-0.478l-1.53-3.539h-0.096
		l-1.53,3.539C116.026,205.174,116.217,205.461,116.504,205.461z"/>
	<path fill="#FFFFFF" d="M133.052,201.348v8.322c0,0.191-0.191,0.383-0.383,0.383h-0.765c-0.191,0-0.383-0.191-0.383-0.383v-8.322
		c0-0.191-0.191-0.383-0.383-0.383h-2.774c-0.191,0-0.383-0.191-0.383-0.383v-0.67c0-0.191,0.191-0.383,0.383-0.383h7.843
		c0.191,0,0.383,0.191,0.383,0.383v0.67c0,0.191-0.191,0.383-0.383,0.383h-2.774C133.243,201.061,133.052,201.157,133.052,201.348z"
		/>
	<path fill="#FFFFFF" d="M145.487,210.148c-1.722,0-2.487-0.67-2.487-2.296v-6.026c0-1.626,0.861-2.2,2.487-2.2h2.87
		c1.722,0,2.487,0.67,2.487,2.2v6.026c0,1.626-0.861,2.296-2.487,2.296H145.487z M148.165,208.713c0.957,0,1.148-0.287,1.148-1.052
		v-5.452c0-0.765-0.287-1.052-1.148-1.052h-2.487c-0.957,0-1.148,0.287-1.148,1.052v5.452c0,0.765,0.287,1.052,1.148,1.052H148.165z
		"/>
	<path fill="#FFFFFF" d="M163.661,209.765v-1.53c0-0.096,0-0.191-0.096-0.191l-1.53-2.104c-0.096-0.096-0.191-0.191-0.287-0.191
		h-2.009c-0.191,0-0.383,0.191-0.383,0.383v3.635c0,0.191-0.191,0.383-0.383,0.383h-0.765c-0.191,0-0.383-0.191-0.383-0.383v-9.852
		c0-0.191,0.191-0.383,0.383-0.383h4.496c1.722,0,2.487,0.67,2.487,2.2v1.53c0,0.957-0.383,1.626-1.148,1.913
		c-0.191,0.096-0.383,0.383-0.191,0.574l1.243,1.722c0,0.096,0.096,0.096,0.096,0.191v1.913c0,0.191-0.191,0.383-0.383,0.383h-0.765
		C163.852,210.148,163.661,209.957,163.661,209.765z M162.513,204.313c0.957,0,1.148-0.287,1.148-1.052v-1.148
		c0-0.765-0.287-1.052-1.148-1.052h-2.774c-0.191,0-0.383,0.191-0.383,0.383v2.583c0,0.191,0.191,0.383,0.383,0.383h2.774V204.313z"
		/>
	<path fill="#FFFFFF" d="M176.861,205.652v4.017c0,0.191-0.191,0.383-0.383,0.383h-0.765c-0.191,0-0.383-0.191-0.383-0.383v-4.017
		c0-0.096,0-0.191-0.096-0.287l-3.061-2.87c-0.096-0.096-0.096-0.191-0.096-0.287v-2.296c0-0.191,0.191-0.383,0.383-0.383h0.765
		c0.191,0,0.383,0.191,0.383,0.383v1.722c0,0.096,0,0.191,0.096,0.287l2.104,2.009c0.191,0.096,0.383,0.096,0.478,0l2.104-2.009
		c0.096-0.096,0.096-0.191,0.096-0.287v-1.722c0-0.191,0.191-0.383,0.383-0.383h0.765c0.191,0,0.383,0.191,0.383,0.383v2.391
		c0,0.096,0,0.191-0.096,0.287l-3.061,2.87C176.861,205.461,176.861,205.557,176.861,205.652z"/>
</g>
<g>
	<path fill="#FFFFFF" d="M48.113,194.652v-2.009c0-0.096,0-0.191-0.096-0.191l-1.722-2.391c-0.096-0.096-0.191-0.191-0.287-0.191
		h-1.913c-0.191,0-0.383,0.191-0.383,0.383v4.4c0,0.191-0.191,0.383-0.383,0.383h-2.104c-0.191,0-0.383-0.191-0.383-0.383v-12.913
		c0-0.191,0.191-0.383,0.383-0.383h6.026c2.296,0,3.635,0.957,3.635,3.157v2.009c0,1.148-0.574,2.104-1.53,2.487
		c-0.191,0.096-0.287,0.383-0.191,0.574l1.626,2.104c0.096,0.096,0.096,0.191,0.096,0.191v2.678c0,0.191-0.191,0.383-0.383,0.383
		h-2.009C48.209,195.035,48.113,194.843,48.113,194.652z M46.87,187.383c0.861,0,1.243-0.383,1.243-1.052v-1.243
		c0-0.765-0.287-1.052-1.243-1.052H44c-0.191,0-0.383,0.191-0.383,0.383v2.678c0,0.191,0.191,0.383,0.383,0.383h2.87V187.383z"/>
	<path fill="#FFFFFF" d="M59.496,194.652v-12.913c0-0.191,0.191-0.383,0.383-0.383h8.8c0.191,0,0.383,0.191,0.383,0.383v1.817
		c0,0.191-0.191,0.383-0.383,0.383h-5.93c-0.191,0-0.383,0.191-0.383,0.383v2.104c0,0.191,0.191,0.383,0.383,0.383h4.687
		c0.191,0,0.383,0.191,0.383,0.383v1.817c0,0.191-0.191,0.383-0.383,0.383h-4.687c-0.191,0-0.383,0.191-0.383,0.383v2.391
		c0,0.191,0.191,0.383,0.383,0.383h5.93c0.191,0,0.383,0.191,0.383,0.383v1.913c0,0.191-0.191,0.383-0.383,0.383h-8.8
		C59.591,195.035,59.496,194.843,59.496,194.652z"/>
	<path fill="#FFFFFF" d="M80.539,191.304c0,0.765,0.287,1.052,1.243,1.052h2.009c0.861,0,1.243-0.383,1.243-1.052v-0.861
		c0-0.765-0.287-1.052-1.243-1.052h-2.583c-2.296,0-3.539-1.052-3.539-3.252v-1.53c0-2.2,1.53-3.252,3.826-3.252h2.583
		c2.296,0,3.635,0.957,3.635,3.157v0.287l-2.774,0.765v-0.478c0-0.765-0.287-1.052-1.243-1.052h-2.009
		c-0.861,0-1.243,0.383-1.243,1.052v0.765c0,0.765,0.287,1.052,1.243,1.052h2.487c2.296,0,3.539,0.957,3.539,3.252v1.722
		c0,2.2-1.435,3.252-3.826,3.252h-2.583c-2.296,0-3.635-0.957-3.635-3.157v-0.383l2.774-0.765v0.478H80.539z"/>
	<path fill="#FFFFFF" d="M96.417,194.652v-12.913c0-0.191,0.191-0.383,0.383-0.383h8.8c0.191,0,0.383,0.191,0.383,0.383v1.817
		c0,0.191-0.191,0.383-0.383,0.383h-5.93c-0.191,0-0.383,0.191-0.383,0.383v2.104c0,0.191,0.191,0.383,0.383,0.383h4.687
		c0.191,0,0.383,0.191,0.383,0.383v1.817c0,0.191-0.191,0.383-0.383,0.383H99.67c-0.191,0-0.383,0.191-0.383,0.383v2.391
		c0,0.191,0.191,0.383,0.383,0.383h5.93c0.191,0,0.383,0.191,0.383,0.383v1.913c0,0.191-0.191,0.383-0.383,0.383h-8.8
		C96.609,195.035,96.417,194.843,96.417,194.652z"/>
	<path fill="#FFFFFF" d="M125.4,191.591v3.061c0,0.191-0.191,0.383-0.383,0.383h-2.009c-0.191,0-0.383-0.191-0.383-0.383v-2.678
		c0-0.096,0-0.096,0-0.191l-0.096-0.287c-0.096-0.096-0.191-0.191-0.383-0.191h-4.783c-0.191,0-0.287,0.096-0.383,0.191
		l-0.096,0.287c0,0,0,0.096,0,0.191v2.678c0,0.191-0.191,0.383-0.383,0.383H114.4c-0.191,0-0.383-0.191-0.383-0.383v-3.061
		c0-0.096,0-0.096,0-0.191l4.113-9.852c0.096-0.096,0.191-0.191,0.383-0.191h2.391c0.191,0,0.287,0.096,0.383,0.191l4.113,9.852
		C125.4,191.496,125.4,191.496,125.4,191.591z M118.513,188.817h2.391c0.287,0,0.478-0.287,0.383-0.478l-1.53-3.73h-0.096
		l-1.53,3.73C118.035,188.53,118.226,188.817,118.513,188.817z"/>
	<path fill="#FFFFFF" d="M140.513,194.652v-2.009c0-0.096,0-0.191-0.096-0.191l-1.722-2.391c-0.096-0.096-0.191-0.191-0.287-0.191
		h-1.913c-0.191,0-0.383,0.191-0.383,0.383v4.4c0,0.191-0.191,0.383-0.383,0.383h-2.104c-0.191,0-0.383-0.191-0.383-0.383v-12.913
		c0-0.191,0.191-0.383,0.383-0.383h6.026c2.296,0,3.635,0.957,3.635,3.157v2.009c0,1.148-0.574,2.104-1.53,2.487
		c-0.191,0.096-0.287,0.383-0.191,0.574l1.626,2.104c0.096,0.096,0.096,0.191,0.096,0.191v2.678c0,0.191-0.191,0.383-0.383,0.383
		h-2.009C140.704,195.035,140.513,194.843,140.513,194.652z M139.27,187.383c0.861,0,1.243-0.383,1.243-1.052v-1.243
		c0-0.765-0.287-1.052-1.243-1.052h-2.774c-0.191,0-0.383,0.191-0.383,0.383v2.678c0,0.191,0.191,0.383,0.383,0.383h2.774V187.383z"
		/>
	<path fill="#FFFFFF" d="M161.843,191.878c0,2.2-1.339,3.157-3.635,3.157h-2.965c-2.296,0-3.635-0.957-3.635-3.157v-7.365
		c0-2.2,1.339-3.157,3.635-3.157h2.965c2.296,0,3.635,0.957,3.635,3.157v0.765c0,0.191-0.096,0.287-0.287,0.383l-2.009,0.574
		c-0.191,0.096-0.478-0.096-0.478-0.383v-0.765c0-0.765-0.287-1.052-1.243-1.052h-2.2c-0.861,0-1.243,0.383-1.243,1.052v6.313
		c0,0.765,0.287,1.052,1.243,1.052h2.2c0.861,0,1.243-0.383,1.243-1.052v-0.957c0-0.287,0.191-0.383,0.478-0.383l2.009,0.574
		c0.191,0,0.287,0.191,0.287,0.383V191.878z"/>
	<path fill="#FFFFFF" d="M177.626,194.652v-4.878c0-0.191-0.191-0.383-0.383-0.383h-4.209c-0.191,0-0.383,0.191-0.383,0.383v4.878
		c0,0.191-0.191,0.383-0.383,0.383h-2.009c-0.191,0-0.383-0.191-0.383-0.383v-12.913c0-0.191,0.191-0.383,0.383-0.383h2.009
		c0.191,0,0.383,0.191,0.383,0.383v4.687c0,0.191,0.191,0.383,0.383,0.383h4.209c0.191,0,0.383-0.191,0.383-0.383v-4.687
		c0-0.191,0.191-0.383,0.383-0.383h2.104c0.191,0,0.383,0.191,0.383,0.383v12.913c0,0.191-0.191,0.383-0.383,0.383h-2.104
		C177.817,195.035,177.626,194.843,177.626,194.652z"/>
</g>
<g>
	<g>
		<path fill="#FFFFFF" d="M147.591,76.904c0.67,0.383,1.243,0.957,1.626,1.53c0.67-0.861,0.957-1.913,0.957-3.061V35.2
			c0-1.913-1.052-3.635-2.678-4.591L112.87,10.617c-1.626-0.957-3.635-0.957-5.261,0L72.791,30.704
			c-1.626,0.957-2.678,2.678-2.678,4.591V75.47c0,1.148,0.383,2.2,0.957,3.061c0.478-0.574,0.957-1.148,1.626-1.53l34.817-20.087
			c1.626-0.957,3.635-0.957,5.261,0L147.591,76.904z M72.791,126.261c-1.626-0.957-2.678-2.678-2.678-4.591V81.496
			c0-0.765,0.191-1.53,0.478-2.2c-1.052-0.096-2.2,0.096-3.157,0.67l-34.817,20.087c-1.626,0.957-2.678,2.678-2.678,4.591v40.174
			c0,1.913,1.052,3.635,2.678,4.591l34.817,20.087c1.626,0.957,3.635,0.957,5.261,0l34.817-20.087
			c0.957-0.574,1.722-1.435,2.104-2.391c-0.765-0.096-1.435-0.287-2.104-0.67L72.791,126.261z M187.67,100.052l-34.817-20.087
			c-0.957-0.574-2.104-0.765-3.157-0.67c0.287,0.67,0.478,1.435,0.478,2.2v40.174c0,1.913-1.052,3.635-2.678,4.591l-34.626,20.087
			c-0.67,0.383-1.435,0.574-2.104,0.67c0.478,0.957,1.148,1.817,2.104,2.391l34.817,20.087c1.626,0.957,3.635,0.957,5.261,0
			l34.817-20.087c1.626-0.957,2.678-2.678,2.678-4.591v-40.174C190.348,102.73,189.391,101.009,187.67,100.052z"/>
	</g>
</g>
<g>
	<g>
		<path fill="#FFFFFF" d="M89.435,86.565v3.443c0,0.287,0.287,0.574,0.574,0.574h7.078c0.287,0,0.574,0.287,0.574,0.574v2.391
			c0,0.287-0.287,0.574-0.574,0.574h-7.078c-0.287,0-0.574,0.287-0.574,0.574v6.217c0,0.287-0.287,0.574-0.574,0.574h-2.774
			c-0.287,0-0.574-0.287-0.574-0.574V82.739c0-0.287,0.287-0.574,0.574-0.574h12.626c0.287,0,0.574,0.287,0.574,0.574v2.487
			c0,0.287-0.287,0.574-0.574,0.574h-8.609C89.626,85.991,89.435,86.183,89.435,86.565z"/>
		<path fill="#FFFFFF" d="M118.226,96.8v4.304c0,0.287-0.287,0.574-0.574,0.574h-2.774c-0.287,0-0.574-0.287-0.574-0.574V97.47
			c0-0.096,0-0.191,0-0.191l-0.191-0.383c-0.096-0.191-0.287-0.383-0.574-0.383h-6.6c-0.287,0-0.478,0.191-0.574,0.383l-0.191,0.383
			c0,0.096,0,0.191,0,0.191v3.635c0,0.287-0.287,0.574-0.574,0.574h-2.774c-0.287,0-0.574-0.287-0.574-0.574V96.8
			c0-0.096,0-0.191,0-0.191l5.835-13.87c0.096-0.191,0.287-0.383,0.574-0.383h3.348c0.287,0,0.478,0.191,0.574,0.383l5.835,13.87
			C118.226,96.609,118.226,96.704,118.226,96.8z M108.565,92.878h3.252c0.383,0,0.67-0.478,0.574-0.861l-2.104-5.165h-0.096
			l-2.104,5.165C107.896,92.4,108.183,92.878,108.565,92.878z"/>
		<path fill="#FFFFFF" d="M121.861,82.93c0-0.287,0.287-0.574,0.574-0.574h8.322c3.252,0,5.165,1.339,5.165,4.496v1.722
			c0,1.052-0.383,2.2-1.339,2.87c-0.383,0.287-0.383,0.765,0,0.957c0.957,0.67,1.339,1.817,1.339,2.87v2.009
			c0,3.157-1.913,4.496-5.165,4.496h-8.322c-0.287,0-0.574-0.287-0.574-0.574V82.93z M130.183,90.009
			c1.243,0,1.722-0.574,1.722-1.626v-0.957c0-1.052-0.383-1.53-1.722-1.53h-3.73c-0.287,0-0.574,0.287-0.574,0.574v2.87
			c0,0.287,0.287,0.574,0.574,0.574h3.73V90.009z M130.183,97.948c1.243,0,1.722-0.478,1.722-1.53v-1.243
			c0-1.052-0.478-1.53-1.722-1.53h-3.73c-0.287,0-0.574,0.287-0.574,0.574v3.157c0,0.287,0.287,0.574,0.574,0.574H130.183z"/>
	</g>
</g>
<g>
	<g>
		<path fill="#FFFFFF" d="M95.365,117.939c0,2.2-1.148,3.061-3.443,3.061h-3.443c-2.296,0-3.443-0.861-3.443-3.061v-8.226
			c0-2.104,1.148-3.061,3.443-3.061h3.443c2.296,0,3.443,0.957,3.443,3.061v0.383c0,0.287-0.191,0.478-0.478,0.574l-0.957,0.287
			c-0.383,0.096-0.765-0.191-0.765-0.574V110c0-1.052-0.383-1.53-1.626-1.53h-2.87c-1.243,0-1.626,0.478-1.626,1.53v7.461
			c0,1.052,0.383,1.53,1.626,1.53h2.87c1.243,0,1.626-0.478,1.626-1.53v-0.383c0-0.383,0.383-0.67,0.765-0.574l0.957,0.287
			c0.287,0.096,0.383,0.287,0.383,0.574v0.574H95.365z"/>
		<path fill="#FFFFFF" d="M99.096,118.991h2.774c0.287,0,0.574-0.287,0.574-0.574v-9.278c0-0.287-0.287-0.574-0.574-0.574h-2.583
			c-0.287,0-0.574-0.287-0.574-0.574v-0.765c0-0.287,0.287-0.574,0.574-0.574h8.417c0.287,0,0.574,0.287,0.574,0.574v0.765
			c0,0.287-0.287,0.574-0.574,0.574h-2.487c-0.287,0-0.574,0.287-0.574,0.574v9.278c0,0.287,0.287,0.574,0.574,0.574h2.774
			c0.287,0,0.574,0.287,0.574,0.574v0.765c0,0.287-0.287,0.574-0.574,0.574h-8.896c-0.287,0-0.574-0.287-0.574-0.574v-0.765
			C98.426,119.278,98.713,118.991,99.096,118.991z"/>
		<path fill="#FFFFFF" d="M117.939,109.139v11.287c0,0.287-0.287,0.574-0.574,0.574h-0.957c-0.287,0-0.574-0.287-0.574-0.574
			v-11.287c0-0.287-0.287-0.574-0.574-0.574h-3.635c-0.287,0-0.574-0.287-0.574-0.574v-0.765c0-0.287,0.287-0.574,0.574-0.574
			h10.522c0.287,0,0.574,0.287,0.574,0.574v0.765c0,0.287-0.287,0.574-0.574,0.574h-3.635
			C118.226,108.565,117.939,108.852,117.939,109.139z"/>
		<path fill="#FFFFFF" d="M131.235,114.974v5.452c0,0.287-0.287,0.574-0.574,0.574h-0.957c-0.287,0-0.574-0.287-0.574-0.574v-5.452
			c0-0.191-0.096-0.287-0.191-0.478l-4.113-3.826c-0.096-0.096-0.191-0.287-0.191-0.478v-3.061c0-0.287,0.287-0.574,0.574-0.574
			h0.957c0.287,0,0.574,0.287,0.574,0.574v2.296c0,0.191,0.096,0.287,0.191,0.478l2.774,2.678c0.191,0.191,0.574,0.191,0.861,0
			l2.774-2.678c0.096-0.096,0.191-0.287,0.191-0.478v-2.296c0-0.287,0.287-0.574,0.574-0.574h0.957c0.287,0,0.574,0.287,0.574,0.574
			v3.061c0,0.191-0.096,0.287-0.191,0.478l-4.113,3.826C131.33,114.687,131.235,114.783,131.235,114.974z"/>
	</g>
</g>
</svg>
